<mxfile host="app.diagrams.net" modified="2024-05-08T06:02:59.168Z" agent="Mozilla/5.0 (Windows NT 10.0; Win64; x64) AppleWebKit/537.36 (KHTML, like Gecko) Chrome/124.0.0.0 Safari/537.36" etag="Sx4PEW6lCN_r1z-zbmSL" version="24.3.1" type="google">
  <diagram name="Page-1" id="YxkcOjIt2d5PBlROXSPs">
    <mxGraphModel grid="1" page="1" gridSize="10" guides="1" tooltips="1" connect="1" arrows="1" fold="1" pageScale="1" pageWidth="1169" pageHeight="827" math="0" shadow="0">
      <root>
        <mxCell id="0" />
        <mxCell id="1" parent="0" />
        <mxCell id="J-x5pgl6WhYHOE8BbErK-181" value="User" style="rounded=1;arcSize=10;whiteSpace=wrap;html=1;align=center;" vertex="1" parent="1">
          <mxGeometry x="-309.5" y="730" width="100" height="40" as="geometry" />
        </mxCell>
        <mxCell id="J-x5pgl6WhYHOE8BbErK-182" value="password" style="ellipse;whiteSpace=wrap;html=1;align=center;" vertex="1" parent="1">
          <mxGeometry x="-394.5" y="600" width="100" height="40" as="geometry" />
        </mxCell>
        <mxCell id="J-x5pgl6WhYHOE8BbErK-186" value="join_date" style="ellipse;whiteSpace=wrap;html=1;align=center;" vertex="1" parent="1">
          <mxGeometry x="-480" y="760" width="100" height="40" as="geometry" />
        </mxCell>
        <mxCell id="J-x5pgl6WhYHOE8BbErK-191" value="short_description" style="ellipse;whiteSpace=wrap;html=1;align=center;" vertex="1" parent="1">
          <mxGeometry x="410" y="678" width="100" height="40" as="geometry" />
        </mxCell>
        <mxCell id="J-x5pgl6WhYHOE8BbErK-192" value="publish_date" style="ellipse;whiteSpace=wrap;html=1;align=center;" vertex="1" parent="1">
          <mxGeometry x="380" y="608" width="100" height="40" as="geometry" />
        </mxCell>
        <mxCell id="J-x5pgl6WhYHOE8BbErK-193" value="&lt;u&gt;id&lt;/u&gt;" style="ellipse;whiteSpace=wrap;html=1;align=center;" vertex="1" parent="1">
          <mxGeometry x="280" y="638" width="100" height="40" as="geometry" />
        </mxCell>
        <mxCell id="J-x5pgl6WhYHOE8BbErK-195" value="Gives" style="shape=rhombus;perimeter=rhombusPerimeter;whiteSpace=wrap;html=1;align=center;" vertex="1" parent="1">
          <mxGeometry x="-180" y="720" width="120" height="60" as="geometry" />
        </mxCell>
        <mxCell id="J-x5pgl6WhYHOE8BbErK-200" value="value" style="ellipse;whiteSpace=wrap;html=1;align=center;" vertex="1" parent="1">
          <mxGeometry x="-112" y="671.5" width="100" height="40" as="geometry" />
        </mxCell>
        <mxCell id="J-x5pgl6WhYHOE8BbErK-205" value="" style="endArrow=none;html=1;rounded=0;exitX=0;exitY=0.5;exitDx=0;exitDy=0;entryX=1;entryY=0.25;entryDx=0;entryDy=0;" edge="1" parent="1" source="J-x5pgl6WhYHOE8BbErK-195" target="J-x5pgl6WhYHOE8BbErK-181">
          <mxGeometry relative="1" as="geometry">
            <mxPoint x="3" y="1140" as="sourcePoint" />
            <mxPoint x="163" y="1140" as="targetPoint" />
          </mxGeometry>
        </mxCell>
        <mxCell id="J-x5pgl6WhYHOE8BbErK-214" style="rounded=0;orthogonalLoop=1;jettySize=auto;html=1;entryX=0;entryY=0.5;entryDx=0;entryDy=0;endArrow=none;endFill=0;exitX=1;exitY=0.5;exitDx=0;exitDy=0;" edge="1" parent="1" source="pKteGFo1wx_aDn2DeEmz-28" target="J-x5pgl6WhYHOE8BbErK-181">
          <mxGeometry relative="1" as="geometry">
            <mxPoint x="-458.03999999999996" y="720" as="sourcePoint" />
          </mxGeometry>
        </mxCell>
        <mxCell id="J-x5pgl6WhYHOE8BbErK-215" style="rounded=0;orthogonalLoop=1;jettySize=auto;html=1;entryX=1;entryY=1;entryDx=0;entryDy=0;endArrow=none;endFill=0;exitX=0.148;exitY=-0.01;exitDx=0;exitDy=0;exitPerimeter=0;" edge="1" parent="1" source="J-x5pgl6WhYHOE8BbErK-181" target="qnJC9kGQZyeTuKTLJ0x--1">
          <mxGeometry relative="1" as="geometry">
            <mxPoint x="-289.5" y="720" as="sourcePoint" />
            <mxPoint x="-354.14466094067257" y="674.1421356237311" as="targetPoint" />
          </mxGeometry>
        </mxCell>
        <mxCell id="J-x5pgl6WhYHOE8BbErK-216" style="rounded=0;orthogonalLoop=1;jettySize=auto;html=1;endArrow=none;endFill=0;exitX=0.724;exitY=0.95;exitDx=0;exitDy=0;exitPerimeter=0;" edge="1" parent="1" source="J-x5pgl6WhYHOE8BbErK-182">
          <mxGeometry relative="1" as="geometry">
            <mxPoint x="-343.5" y="806" as="sourcePoint" />
            <mxPoint x="-279.5" y="730" as="targetPoint" />
          </mxGeometry>
        </mxCell>
        <mxCell id="J-x5pgl6WhYHOE8BbErK-219" style="rounded=0;orthogonalLoop=1;jettySize=auto;html=1;endArrow=none;endFill=0;entryX=0;entryY=1;entryDx=0;entryDy=0;exitX=1;exitY=0.5;exitDx=0;exitDy=0;" edge="1" parent="1" source="J-x5pgl6WhYHOE8BbErK-186" target="J-x5pgl6WhYHOE8BbErK-181">
          <mxGeometry relative="1" as="geometry">
            <mxPoint x="-366.5" y="790" as="sourcePoint" />
            <mxPoint x="-259.5" y="730" as="targetPoint" />
          </mxGeometry>
        </mxCell>
        <mxCell id="J-x5pgl6WhYHOE8BbErK-221" style="rounded=0;orthogonalLoop=1;jettySize=auto;html=1;endArrow=none;endFill=0;entryX=0.361;entryY=1.003;entryDx=0;entryDy=0;entryPerimeter=0;exitX=0.5;exitY=0;exitDx=0;exitDy=0;startArrow=classic;startFill=1;" edge="1" parent="1" source="L81fcon4hf4_sHEwZbb1-23" target="J-x5pgl6WhYHOE8BbErK-181">
          <mxGeometry relative="1" as="geometry">
            <mxPoint x="-360" y="880" as="sourcePoint" />
            <mxPoint x="-289.5" y="770" as="targetPoint" />
          </mxGeometry>
        </mxCell>
        <mxCell id="J-x5pgl6WhYHOE8BbErK-222" style="rounded=0;orthogonalLoop=1;jettySize=auto;html=1;entryX=0.5;entryY=0;entryDx=0;entryDy=0;endArrow=none;endFill=0;exitX=0.5;exitY=1;exitDx=0;exitDy=0;" edge="1" parent="1" source="J-x5pgl6WhYHOE8BbErK-181" target="L81fcon4hf4_sHEwZbb1-22">
          <mxGeometry relative="1" as="geometry">
            <mxPoint x="-273.5" y="876" as="sourcePoint" />
            <mxPoint x="-251" y="893.5" as="targetPoint" />
          </mxGeometry>
        </mxCell>
        <mxCell id="J-x5pgl6WhYHOE8BbErK-223" value="Post" style="rounded=1;arcSize=10;whiteSpace=wrap;html=1;align=center;" vertex="1" parent="1">
          <mxGeometry x="289.84999999999997" y="778" width="100" height="40" as="geometry" />
        </mxCell>
        <mxCell id="J-x5pgl6WhYHOE8BbErK-232" value="" style="endArrow=none;html=1;rounded=0;exitX=1;exitY=0.5;exitDx=0;exitDy=0;" edge="1" parent="1" source="J-x5pgl6WhYHOE8BbErK-195" target="L81fcon4hf4_sHEwZbb1-3">
          <mxGeometry relative="1" as="geometry">
            <mxPoint x="-103" y="820" as="sourcePoint" />
            <mxPoint x="-207" y="830" as="targetPoint" />
          </mxGeometry>
        </mxCell>
        <mxCell id="J-x5pgl6WhYHOE8BbErK-234" value="" style="endArrow=none;html=1;rounded=0;exitX=1;exitY=0.5;exitDx=0;exitDy=0;entryX=-0.003;entryY=0.657;entryDx=0;entryDy=0;entryPerimeter=0;strokeWidth=1;startArrow=classic;startFill=1;" edge="1" parent="1" source="L81fcon4hf4_sHEwZbb1-14" target="J-x5pgl6WhYHOE8BbErK-223">
          <mxGeometry relative="1" as="geometry">
            <mxPoint x="172" y="893.5" as="sourcePoint" />
            <mxPoint x="123" y="820" as="targetPoint" />
          </mxGeometry>
        </mxCell>
        <mxCell id="J-x5pgl6WhYHOE8BbErK-235" value="" style="endArrow=none;html=1;rounded=0;exitX=0;exitY=0;exitDx=0;exitDy=0;entryX=0.818;entryY=0.993;entryDx=0;entryDy=0;entryPerimeter=0;" edge="1" parent="1" source="L81fcon4hf4_sHEwZbb1-14" target="J-x5pgl6WhYHOE8BbErK-181">
          <mxGeometry relative="1" as="geometry">
            <mxPoint x="28" y="800" as="sourcePoint" />
            <mxPoint x="133" y="830" as="targetPoint" />
            <Array as="points">
              <mxPoint x="-150" y="880" />
            </Array>
          </mxGeometry>
        </mxCell>
        <mxCell id="J-x5pgl6WhYHOE8BbErK-236" value="" style="endArrow=none;html=1;rounded=0;exitX=0.5;exitY=0;exitDx=0;exitDy=0;entryX=0.5;entryY=1;entryDx=0;entryDy=0;" edge="1" parent="1" source="L81fcon4hf4_sHEwZbb1-3" target="J-x5pgl6WhYHOE8BbErK-200">
          <mxGeometry relative="1" as="geometry">
            <mxPoint x="48" y="820" as="sourcePoint" />
            <mxPoint x="-52" y="900" as="targetPoint" />
          </mxGeometry>
        </mxCell>
        <mxCell id="J-x5pgl6WhYHOE8BbErK-238" style="rounded=0;orthogonalLoop=1;jettySize=auto;html=1;endArrow=none;endFill=0;exitX=0.332;exitY=0.05;exitDx=0;exitDy=0;entryX=0.59;entryY=1.05;entryDx=0;entryDy=0;entryPerimeter=0;exitPerimeter=0;" edge="1" parent="1" source="J-x5pgl6WhYHOE8BbErK-223" target="J-x5pgl6WhYHOE8BbErK-193">
          <mxGeometry relative="1" as="geometry">
            <mxPoint x="353.84999999999997" y="747.8" as="sourcePoint" />
            <mxPoint x="249.9955206038281" y="722.2255678634547" as="targetPoint" />
          </mxGeometry>
        </mxCell>
        <mxCell id="J-x5pgl6WhYHOE8BbErK-239" style="rounded=0;orthogonalLoop=1;jettySize=auto;html=1;endArrow=none;endFill=0;exitX=0.5;exitY=0;exitDx=0;exitDy=0;entryX=0.31;entryY=0.975;entryDx=0;entryDy=0;entryPerimeter=0;" edge="1" parent="1" source="J-x5pgl6WhYHOE8BbErK-223" target="J-x5pgl6WhYHOE8BbErK-192">
          <mxGeometry relative="1" as="geometry">
            <mxPoint x="324.84999999999997" y="788" as="sourcePoint" />
            <mxPoint x="269.84999999999997" y="722" as="targetPoint" />
          </mxGeometry>
        </mxCell>
        <mxCell id="J-x5pgl6WhYHOE8BbErK-240" style="rounded=0;orthogonalLoop=1;jettySize=auto;html=1;endArrow=none;endFill=0;exitX=0.627;exitY=-0.001;exitDx=0;exitDy=0;entryX=0.354;entryY=0.985;entryDx=0;entryDy=0;entryPerimeter=0;exitPerimeter=0;" edge="1" parent="1" source="J-x5pgl6WhYHOE8BbErK-223" target="J-x5pgl6WhYHOE8BbErK-191">
          <mxGeometry relative="1" as="geometry">
            <mxPoint x="334.84999999999997" y="798" as="sourcePoint" />
            <mxPoint x="279.84999999999997" y="732" as="targetPoint" />
          </mxGeometry>
        </mxCell>
        <mxCell id="J-x5pgl6WhYHOE8BbErK-241" style="rounded=0;orthogonalLoop=1;jettySize=auto;html=1;endArrow=none;endFill=0;exitX=0.821;exitY=-0.004;exitDx=0;exitDy=0;entryX=0;entryY=0.5;entryDx=0;entryDy=0;exitPerimeter=0;" edge="1" parent="1" source="J-x5pgl6WhYHOE8BbErK-223" target="pKteGFo1wx_aDn2DeEmz-1">
          <mxGeometry relative="1" as="geometry">
            <mxPoint x="344.84999999999997" y="808" as="sourcePoint" />
            <mxPoint x="547.4879999999998" y="714" as="targetPoint" />
          </mxGeometry>
        </mxCell>
        <mxCell id="J-x5pgl6WhYHOE8BbErK-266" value="writes" style="shape=rhombus;perimeter=rhombusPerimeter;whiteSpace=wrap;html=1;align=center;strokeWidth=3;" vertex="1" parent="1">
          <mxGeometry x="-251" y="953.5" width="120" height="60" as="geometry" />
        </mxCell>
        <mxCell id="J-x5pgl6WhYHOE8BbErK-267" style="rounded=0;orthogonalLoop=1;jettySize=auto;html=1;endArrow=none;endFill=0;entryX=0.5;entryY=0;entryDx=0;entryDy=0;" edge="1" parent="1" source="J-x5pgl6WhYHOE8BbErK-181" target="J-x5pgl6WhYHOE8BbErK-266">
          <mxGeometry relative="1" as="geometry">
            <mxPoint x="-232" y="850" as="sourcePoint" />
            <mxPoint x="-102" y="1010" as="targetPoint" />
          </mxGeometry>
        </mxCell>
        <mxCell id="J-x5pgl6WhYHOE8BbErK-268" value="textual_content" style="ellipse;whiteSpace=wrap;html=1;align=center;" vertex="1" parent="1">
          <mxGeometry x="-295" y="1135.5" width="90" height="40" as="geometry" />
        </mxCell>
        <mxCell id="J-x5pgl6WhYHOE8BbErK-269" value="date" style="ellipse;whiteSpace=wrap;html=1;align=center;" vertex="1" parent="1">
          <mxGeometry x="-190" y="1135.5" width="90" height="40" as="geometry" />
        </mxCell>
        <mxCell id="J-x5pgl6WhYHOE8BbErK-271" value="" style="endArrow=none;html=1;rounded=0;exitX=0.633;exitY=0.033;exitDx=0;exitDy=0;exitPerimeter=0;" edge="1" parent="1" source="qnJC9kGQZyeTuKTLJ0x--4" target="J-x5pgl6WhYHOE8BbErK-269">
          <mxGeometry relative="1" as="geometry">
            <mxPoint x="-147" y="953.5" as="sourcePoint" />
            <mxPoint x="-42" y="919.5" as="targetPoint" />
          </mxGeometry>
        </mxCell>
        <mxCell id="J-x5pgl6WhYHOE8BbErK-272" value="" style="endArrow=none;html=1;rounded=0;exitX=0.25;exitY=0;exitDx=0;exitDy=0;entryX=0.5;entryY=0;entryDx=0;entryDy=0;" edge="1" parent="1" source="qnJC9kGQZyeTuKTLJ0x--4" target="J-x5pgl6WhYHOE8BbErK-268">
          <mxGeometry relative="1" as="geometry">
            <mxPoint x="-177" y="1038.5" as="sourcePoint" />
            <mxPoint x="-167" y="1055.5" as="targetPoint" />
          </mxGeometry>
        </mxCell>
        <mxCell id="qnJC9kGQZyeTuKTLJ0x--1" value="&lt;u&gt;username&lt;/u&gt;" style="ellipse;whiteSpace=wrap;html=1;" vertex="1" parent="1">
          <mxGeometry x="-447.5" y="640" width="100" height="40" as="geometry" />
        </mxCell>
        <mxCell id="J-x5pgl6WhYHOE8BbErK-359" value="Tag" style="rounded=1;arcSize=10;whiteSpace=wrap;html=1;align=center;" vertex="1" parent="1">
          <mxGeometry x="197" y="515.5" width="100" height="40" as="geometry" />
        </mxCell>
        <mxCell id="J-x5pgl6WhYHOE8BbErK-365" value="Have" style="shape=rhombus;perimeter=rhombusPerimeter;whiteSpace=wrap;html=1;align=center;" vertex="1" parent="1">
          <mxGeometry x="190" y="588" width="120" height="60" as="geometry" />
        </mxCell>
        <mxCell id="J-x5pgl6WhYHOE8BbErK-368" value="" style="endArrow=none;html=1;rounded=0;entryX=0.172;entryY=-0.025;entryDx=0;entryDy=0;exitX=0.5;exitY=1;exitDx=0;exitDy=0;entryPerimeter=0;" edge="1" parent="1" source="J-x5pgl6WhYHOE8BbErK-365" target="J-x5pgl6WhYHOE8BbErK-223">
          <mxGeometry width="50" height="50" relative="1" as="geometry">
            <mxPoint x="162.85" y="888" as="sourcePoint" />
            <mxPoint x="212.85" y="838" as="targetPoint" />
          </mxGeometry>
        </mxCell>
        <mxCell id="J-x5pgl6WhYHOE8BbErK-369" value="" style="endArrow=none;html=1;rounded=0;entryX=0.5;entryY=0;entryDx=0;entryDy=0;exitX=0.5;exitY=1;exitDx=0;exitDy=0;" edge="1" parent="1" source="J-x5pgl6WhYHOE8BbErK-359" target="J-x5pgl6WhYHOE8BbErK-365">
          <mxGeometry width="50" height="50" relative="1" as="geometry">
            <mxPoint x="193" y="643.5" as="sourcePoint" />
            <mxPoint x="183" y="773.5" as="targetPoint" />
          </mxGeometry>
        </mxCell>
        <mxCell id="qnJC9kGQZyeTuKTLJ0x--2" value="bio" style="ellipse;whiteSpace=wrap;html=1;align=center;" vertex="1" parent="1">
          <mxGeometry x="-456.5" y="810" width="100" height="40" as="geometry" />
        </mxCell>
        <mxCell id="qnJC9kGQZyeTuKTLJ0x--3" style="rounded=0;orthogonalLoop=1;jettySize=auto;html=1;endArrow=none;endFill=0;exitX=1;exitY=0.5;exitDx=0;exitDy=0;" edge="1" parent="1" source="qnJC9kGQZyeTuKTLJ0x--2" target="J-x5pgl6WhYHOE8BbErK-181">
          <mxGeometry relative="1" as="geometry">
            <mxPoint x="-390" y="840" as="sourcePoint" />
            <mxPoint x="-333" y="820" as="targetPoint" />
          </mxGeometry>
        </mxCell>
        <mxCell id="qnJC9kGQZyeTuKTLJ0x--4" value="Comment" style="rounded=1;whiteSpace=wrap;html=1;strokeWidth=3;" vertex="1" parent="1">
          <mxGeometry x="-239" y="1063.5" width="100" height="40" as="geometry" />
        </mxCell>
        <mxCell id="ivR5DiZLJWOZWxGexW3t-7" value="difficulty" style="ellipse;whiteSpace=wrap;html=1;align=center;" vertex="1" parent="1">
          <mxGeometry x="329.9999999999999" y="953.5" width="100" height="40" as="geometry" />
        </mxCell>
        <mxCell id="qnJC9kGQZyeTuKTLJ0x--5" value="belongs" style="rhombus;whiteSpace=wrap;html=1;strokeWidth=3;" vertex="1" parent="1">
          <mxGeometry x="45" y="953.5" width="110" height="50" as="geometry" />
        </mxCell>
        <mxCell id="J-x5pgl6WhYHOE8BbErK-370" value="has" style="shape=rhombus;perimeter=rhombusPerimeter;whiteSpace=wrap;html=1;align=center;" vertex="1" parent="1">
          <mxGeometry x="-209.5" y="620" width="120" height="60" as="geometry" />
        </mxCell>
        <mxCell id="qnJC9kGQZyeTuKTLJ0x--6" value="" style="endArrow=classic;html=1;rounded=0;exitX=1;exitY=0.5;exitDx=0;exitDy=0;entryX=0;entryY=0.5;entryDx=0;entryDy=0;endFill=1;strokeWidth=3;" edge="1" parent="1" source="qnJC9kGQZyeTuKTLJ0x--4" target="qnJC9kGQZyeTuKTLJ0x--5">
          <mxGeometry relative="1" as="geometry">
            <mxPoint x="160" y="983.5" as="sourcePoint" />
            <mxPoint x="55" y="943.5" as="targetPoint" />
          </mxGeometry>
        </mxCell>
        <mxCell id="_J3son_ZV2FYcVDLouIg-3" value="&lt;u&gt;tag_name&lt;/u&gt;" style="ellipse;whiteSpace=wrap;html=1;align=center;" vertex="1" parent="1">
          <mxGeometry x="120" y="455.5" width="100" height="40" as="geometry" />
        </mxCell>
        <mxCell id="qnJC9kGQZyeTuKTLJ0x--7" value="" style="endArrow=none;html=1;rounded=0;exitX=1;exitY=0.5;exitDx=0;exitDy=0;" edge="1" parent="1" source="qnJC9kGQZyeTuKTLJ0x--5" target="J-x5pgl6WhYHOE8BbErK-223">
          <mxGeometry relative="1" as="geometry">
            <mxPoint x="162.5" y="958.5" as="sourcePoint" />
            <mxPoint x="-2.1500000000000057" y="933.5" as="targetPoint" />
          </mxGeometry>
        </mxCell>
        <mxCell id="J-x5pgl6WhYHOE8BbErK-373" value="" style="endArrow=none;html=1;rounded=0;entryX=0;entryY=0;entryDx=0;entryDy=0;" edge="1" parent="1" source="pKteGFo1wx_aDn2DeEmz-35" target="J-x5pgl6WhYHOE8BbErK-223">
          <mxGeometry relative="1" as="geometry">
            <mxPoint x="70" y="710" as="sourcePoint" />
            <mxPoint x="-232" y="810" as="targetPoint" />
          </mxGeometry>
        </mxCell>
        <mxCell id="J-x5pgl6WhYHOE8BbErK-372" value="" style="endArrow=none;html=1;rounded=0;exitX=0;exitY=0.5;exitDx=0;exitDy=0;entryX=0.75;entryY=0;entryDx=0;entryDy=0;" edge="1" parent="1" source="J-x5pgl6WhYHOE8BbErK-370" target="J-x5pgl6WhYHOE8BbErK-181">
          <mxGeometry relative="1" as="geometry">
            <mxPoint x="-174" y="560" as="sourcePoint" />
            <mxPoint x="-259" y="810" as="targetPoint" />
          </mxGeometry>
        </mxCell>
        <mxCell id="OAKNNz8TD4ovsHmbLsVU-1" value="" style="endArrow=none;html=1;rounded=0;exitX=1;exitY=1;exitDx=0;exitDy=0;entryX=0.25;entryY=0;entryDx=0;entryDy=0;" edge="1" parent="1" source="_J3son_ZV2FYcVDLouIg-3" target="J-x5pgl6WhYHOE8BbErK-359">
          <mxGeometry width="50" height="50" relative="1" as="geometry">
            <mxPoint x="312" y="445.5" as="sourcePoint" />
            <mxPoint x="362" y="395.5" as="targetPoint" />
          </mxGeometry>
        </mxCell>
        <mxCell id="qnJC9kGQZyeTuKTLJ0x--8" style="rounded=0;orthogonalLoop=1;jettySize=auto;html=1;endArrow=none;endFill=0;entryX=0.5;entryY=0;entryDx=0;entryDy=0;" edge="1" parent="1" source="J-x5pgl6WhYHOE8BbErK-223" target="ivR5DiZLJWOZWxGexW3t-7">
          <mxGeometry relative="1" as="geometry">
            <mxPoint x="373" y="911.5" as="sourcePoint" />
            <mxPoint x="438" y="992.5" as="targetPoint" />
          </mxGeometry>
        </mxCell>
        <mxCell id="J-x5pgl6WhYHOE8BbErK-379" value="Ingredients" style="rounded=1;arcSize=10;whiteSpace=wrap;html=1;align=center;" vertex="1" parent="1">
          <mxGeometry x="50" y="1013.5" width="100" height="40" as="geometry" />
        </mxCell>
        <mxCell id="OAKNNz8TD4ovsHmbLsVU-4" value="" style="endArrow=none;html=1;rounded=0;entryX=0;entryY=0.5;entryDx=0;entryDy=0;exitX=1;exitY=1;exitDx=0;exitDy=0;" edge="1" parent="1" source="J-x5pgl6WhYHOE8BbErK-181" target="L81fcon4hf4_sHEwZbb1-9">
          <mxGeometry width="50" height="50" relative="1" as="geometry">
            <mxPoint x="-210" y="770" as="sourcePoint" />
            <mxPoint x="-184" y="780" as="targetPoint" />
          </mxGeometry>
        </mxCell>
        <mxCell id="OAKNNz8TD4ovsHmbLsVU-5" value="" style="endArrow=none;html=1;rounded=0;entryX=0;entryY=0.5;entryDx=0;entryDy=0;exitX=1;exitY=0.5;exitDx=0;exitDy=0;" edge="1" parent="1" source="L81fcon4hf4_sHEwZbb1-12" target="J-x5pgl6WhYHOE8BbErK-223">
          <mxGeometry width="50" height="50" relative="1" as="geometry">
            <mxPoint x="-12" y="820" as="sourcePoint" />
            <mxPoint x="101" y="819.5" as="targetPoint" />
          </mxGeometry>
        </mxCell>
        <mxCell id="J-x5pgl6WhYHOE8BbErK-386" value="Contains" style="shape=rhombus;perimeter=rhombusPerimeter;whiteSpace=wrap;html=1;align=center;" vertex="1" parent="1">
          <mxGeometry x="190" y="1003.5" width="120" height="60" as="geometry" />
        </mxCell>
        <mxCell id="qnJC9kGQZyeTuKTLJ0x--9" value="&lt;u&gt;ingredient_name&lt;/u&gt;" style="ellipse;whiteSpace=wrap;html=1;align=center;" vertex="1" parent="1">
          <mxGeometry x="50" y="1083.5" width="100" height="40" as="geometry" />
        </mxCell>
        <mxCell id="qnJC9kGQZyeTuKTLJ0x--10" style="rounded=0;orthogonalLoop=1;jettySize=auto;html=1;endArrow=none;endFill=0;exitX=0.5;exitY=0;exitDx=0;exitDy=0;" edge="1" parent="1" source="qnJC9kGQZyeTuKTLJ0x--9" target="J-x5pgl6WhYHOE8BbErK-379">
          <mxGeometry relative="1" as="geometry">
            <mxPoint x="27.75" y="1153.5" as="sourcePoint" />
            <mxPoint x="133.75" y="1083.5" as="targetPoint" />
          </mxGeometry>
        </mxCell>
        <mxCell id="qnJC9kGQZyeTuKTLJ0x--11" value="" style="endArrow=classic;html=1;rounded=0;exitX=0.5;exitY=0;exitDx=0;exitDy=0;entryX=0.5;entryY=1;entryDx=0;entryDy=0;strokeWidth=3;endFill=1;" edge="1" parent="1" source="qnJC9kGQZyeTuKTLJ0x--4" target="J-x5pgl6WhYHOE8BbErK-266">
          <mxGeometry width="50" height="50" relative="1" as="geometry">
            <mxPoint x="-264" y="973.5" as="sourcePoint" />
            <mxPoint x="-304" y="1103.5" as="targetPoint" />
          </mxGeometry>
        </mxCell>
        <mxCell id="J-x5pgl6WhYHOE8BbErK-391" value="" style="endArrow=none;html=1;rounded=0;" edge="1" parent="1" source="J-x5pgl6WhYHOE8BbErK-223" target="L81fcon4hf4_sHEwZbb1-19">
          <mxGeometry relative="1" as="geometry">
            <mxPoint x="636.35" y="1038" as="sourcePoint" />
            <mxPoint x="450" y="983.5" as="targetPoint" />
          </mxGeometry>
        </mxCell>
        <mxCell id="OAKNNz8TD4ovsHmbLsVU-6" value="" style="endArrow=none;html=1;rounded=0;entryX=0;entryY=0.5;entryDx=0;entryDy=0;exitX=1;exitY=0.5;exitDx=0;exitDy=0;startArrow=none;startFill=0;endFill=0;" edge="1" parent="1" source="J-x5pgl6WhYHOE8BbErK-379" target="J-x5pgl6WhYHOE8BbErK-386">
          <mxGeometry width="50" height="50" relative="1" as="geometry">
            <mxPoint x="174.5" y="1103.5" as="sourcePoint" />
            <mxPoint x="224.5" y="1053.5" as="targetPoint" />
          </mxGeometry>
        </mxCell>
        <mxCell id="J-x5pgl6WhYHOE8BbErK-398" value="" style="endArrow=none;html=1;rounded=0;entryX=1;entryY=0.5;entryDx=0;entryDy=0;" edge="1" parent="1" source="J-x5pgl6WhYHOE8BbErK-223" target="J-x5pgl6WhYHOE8BbErK-386">
          <mxGeometry width="50" height="50" relative="1" as="geometry">
            <mxPoint x="392.5" y="1093.5" as="sourcePoint" />
            <mxPoint x="242.5" y="1103.5" as="targetPoint" />
          </mxGeometry>
        </mxCell>
        <mxCell id="J-x5pgl6WhYHOE8BbErK-400" value="num_uses" style="ellipse;whiteSpace=wrap;html=1;align=center;dashed=1;" vertex="1" parent="1">
          <mxGeometry x="250" y="455.5" width="130" height="40" as="geometry" />
        </mxCell>
        <mxCell id="OAKNNz8TD4ovsHmbLsVU-8" value="" style="endArrow=none;html=1;rounded=0;entryX=1;entryY=1;entryDx=0;entryDy=0;exitX=0.03;exitY=0.25;exitDx=0;exitDy=0;exitPerimeter=0;" edge="1" parent="1" source="OAKNNz8TD4ovsHmbLsVU-7" target="J-x5pgl6WhYHOE8BbErK-223">
          <mxGeometry width="50" height="50" relative="1" as="geometry">
            <mxPoint x="257.85" y="868.5" as="sourcePoint" />
            <mxPoint x="307.85" y="818.5" as="targetPoint" />
          </mxGeometry>
        </mxCell>
        <mxCell id="J-x5pgl6WhYHOE8BbErK-402" value="" style="endArrow=none;html=1;rounded=0;exitX=0.5;exitY=1;exitDx=0;exitDy=0;entryX=0.75;entryY=0;entryDx=0;entryDy=0;" edge="1" parent="1" source="J-x5pgl6WhYHOE8BbErK-400" target="J-x5pgl6WhYHOE8BbErK-359">
          <mxGeometry width="50" height="50" relative="1" as="geometry">
            <mxPoint x="305" y="479.5" as="sourcePoint" />
            <mxPoint x="322" y="505.5" as="targetPoint" />
          </mxGeometry>
        </mxCell>
        <mxCell id="OAKNNz8TD4ovsHmbLsVU-7" value="time" style="ellipse;whiteSpace=wrap;html=1;align=center;" vertex="1" parent="1">
          <mxGeometry x="447.5" y="863.5" width="100" height="40" as="geometry" />
        </mxCell>
        <mxCell id="qnJC9kGQZyeTuKTLJ0x--12" value="rating" style="ellipse;whiteSpace=wrap;html=1;align=center;dashed=1;" vertex="1" parent="1">
          <mxGeometry x="522.5" y="738" width="70" height="40" as="geometry" />
        </mxCell>
        <mxCell id="qnJC9kGQZyeTuKTLJ0x--13" style="rounded=0;orthogonalLoop=1;jettySize=auto;html=1;endArrow=none;endFill=0;entryX=0;entryY=0.5;entryDx=0;entryDy=0;" edge="1" parent="1" source="J-x5pgl6WhYHOE8BbErK-223" target="qnJC9kGQZyeTuKTLJ0x--12">
          <mxGeometry relative="1" as="geometry">
            <mxPoint x="392.85" y="778" as="sourcePoint" />
            <mxPoint x="444.85" y="752" as="targetPoint" />
          </mxGeometry>
        </mxCell>
        <mxCell id="OAKNNz8TD4ovsHmbLsVU-9" value="num_likes" style="ellipse;whiteSpace=wrap;html=1;align=center;dashed=1;" vertex="1" parent="1">
          <mxGeometry x="547.5" y="813.5" width="70" height="40" as="geometry" />
        </mxCell>
        <mxCell id="OAKNNz8TD4ovsHmbLsVU-10" value="num_comments" style="ellipse;whiteSpace=wrap;html=1;align=center;dashed=1;" vertex="1" parent="1">
          <mxGeometry x="595" y="863.5" width="105" height="40" as="geometry" />
        </mxCell>
        <mxCell id="OAKNNz8TD4ovsHmbLsVU-11" value="" style="endArrow=none;html=1;rounded=0;entryX=0.048;entryY=0.325;entryDx=0;entryDy=0;entryPerimeter=0;exitX=1;exitY=0.75;exitDx=0;exitDy=0;" edge="1" parent="1" source="J-x5pgl6WhYHOE8BbErK-223" target="OAKNNz8TD4ovsHmbLsVU-10">
          <mxGeometry width="50" height="50" relative="1" as="geometry">
            <mxPoint x="344.85" y="863.5" as="sourcePoint" />
            <mxPoint x="394.85" y="813.5" as="targetPoint" />
          </mxGeometry>
        </mxCell>
        <mxCell id="OAKNNz8TD4ovsHmbLsVU-12" value="" style="endArrow=none;html=1;rounded=0;entryX=0;entryY=0.5;entryDx=0;entryDy=0;exitX=1;exitY=0.5;exitDx=0;exitDy=0;" edge="1" parent="1" source="J-x5pgl6WhYHOE8BbErK-223" target="OAKNNz8TD4ovsHmbLsVU-9">
          <mxGeometry width="50" height="50" relative="1" as="geometry">
            <mxPoint x="304.85" y="780.5" as="sourcePoint" />
            <mxPoint x="432.85" y="833.5" as="targetPoint" />
          </mxGeometry>
        </mxCell>
        <mxCell id="qnJC9kGQZyeTuKTLJ0x--16" value="" style="endArrow=none;dashed=1;html=1;rounded=0;strokeWidth=2;" edge="1" parent="1">
          <mxGeometry width="50" height="50" relative="1" as="geometry">
            <mxPoint x="-287" y="1165" as="sourcePoint" />
            <mxPoint x="-213" y="1165" as="targetPoint" />
          </mxGeometry>
        </mxCell>
        <mxCell id="ZMr-9Y1EZH5B68UIzWrG-3" value="Name" style="ellipse;whiteSpace=wrap;html=1;align=center;" vertex="1" parent="1">
          <mxGeometry x="440" y="923.5" width="100" height="40" as="geometry" />
        </mxCell>
        <mxCell id="ZMr-9Y1EZH5B68UIzWrG-4" value="" style="endArrow=none;html=1;rounded=0;entryX=0;entryY=0;entryDx=0;entryDy=0;" edge="1" parent="1" source="J-x5pgl6WhYHOE8BbErK-223" target="ZMr-9Y1EZH5B68UIzWrG-3">
          <mxGeometry relative="1" as="geometry">
            <mxPoint x="624.35" y="1018" as="sourcePoint" />
            <mxPoint x="473.35" y="768" as="targetPoint" />
          </mxGeometry>
        </mxCell>
        <mxCell id="ZMr-9Y1EZH5B68UIzWrG-5" value="title" style="ellipse;whiteSpace=wrap;html=1;align=center;dashed=1;" vertex="1" parent="1">
          <mxGeometry x="630" y="778" width="70" height="40" as="geometry" />
        </mxCell>
        <mxCell id="ZMr-9Y1EZH5B68UIzWrG-6" style="rounded=0;orthogonalLoop=1;jettySize=auto;html=1;endArrow=none;endFill=0;entryX=0;entryY=0.5;entryDx=0;entryDy=0;" edge="1" parent="1" source="J-x5pgl6WhYHOE8BbErK-223" target="ZMr-9Y1EZH5B68UIzWrG-5">
          <mxGeometry relative="1" as="geometry">
            <mxPoint x="374.65" y="838" as="sourcePoint" />
            <mxPoint x="429.5" y="802" as="targetPoint" />
          </mxGeometry>
        </mxCell>
        <mxCell id="dI1Pt4XZUPknA_OTo-co-7" value="value" style="ellipse;whiteSpace=wrap;html=1;align=center;" vertex="1" parent="1">
          <mxGeometry x="150" y="1104.5" width="100" height="40" as="geometry" />
        </mxCell>
        <mxCell id="dI1Pt4XZUPknA_OTo-co-8" value="" style="endArrow=none;html=1;rounded=0;entryX=0.5;entryY=0;entryDx=0;entryDy=0;exitX=0;exitY=1;exitDx=0;exitDy=0;" edge="1" parent="1" source="J-x5pgl6WhYHOE8BbErK-386" target="dI1Pt4XZUPknA_OTo-co-7">
          <mxGeometry relative="1" as="geometry">
            <mxPoint x="282.5" y="1163.5" as="sourcePoint" />
            <mxPoint x="292.5" y="1333.5" as="targetPoint" />
          </mxGeometry>
        </mxCell>
        <mxCell id="pg-Ro-OntzD8uK0vRVIh-1" value="unit" style="ellipse;whiteSpace=wrap;html=1;align=center;" vertex="1" parent="1">
          <mxGeometry x="260" y="1104.5" width="100" height="40" as="geometry" />
        </mxCell>
        <mxCell id="pg-Ro-OntzD8uK0vRVIh-2" value="" style="endArrow=none;html=1;rounded=0;entryX=0.5;entryY=0;entryDx=0;entryDy=0;exitX=1;exitY=1;exitDx=0;exitDy=0;" edge="1" parent="1" source="J-x5pgl6WhYHOE8BbErK-386" target="pg-Ro-OntzD8uK0vRVIh-1">
          <mxGeometry relative="1" as="geometry">
            <mxPoint x="330" y="1073.5" as="sourcePoint" />
            <mxPoint x="382.5" y="1333.5" as="targetPoint" />
          </mxGeometry>
        </mxCell>
        <mxCell id="pKteGFo1wx_aDn2DeEmz-1" value="Have" style="shape=rhombus;perimeter=rhombusPerimeter;whiteSpace=wrap;html=1;align=center;strokeWidth=3;" vertex="1" parent="1">
          <mxGeometry x="540" y="678" width="120" height="60" as="geometry" />
        </mxCell>
        <mxCell id="pKteGFo1wx_aDn2DeEmz-2" value="Photo" style="rounded=1;arcSize=10;whiteSpace=wrap;html=1;align=center;strokeWidth=3;" vertex="1" parent="1">
          <mxGeometry x="550" y="608" width="100" height="40" as="geometry" />
        </mxCell>
        <mxCell id="pKteGFo1wx_aDn2DeEmz-3" style="rounded=0;orthogonalLoop=1;jettySize=auto;html=1;endArrow=none;endFill=0;exitX=0.5;exitY=0;exitDx=0;exitDy=0;entryX=0.5;entryY=1;entryDx=0;entryDy=0;startArrow=classic;startFill=1;strokeWidth=3;" edge="1" parent="1" source="pKteGFo1wx_aDn2DeEmz-1" target="pKteGFo1wx_aDn2DeEmz-2">
          <mxGeometry relative="1" as="geometry">
            <mxPoint x="382" y="787.5" as="sourcePoint" />
            <mxPoint x="550" y="718.5" as="targetPoint" />
          </mxGeometry>
        </mxCell>
        <mxCell id="pKteGFo1wx_aDn2DeEmz-7" value="url" style="ellipse;whiteSpace=wrap;html=1;align=center;" vertex="1" parent="1">
          <mxGeometry x="550" y="538.5" width="100" height="40" as="geometry" />
        </mxCell>
        <mxCell id="pKteGFo1wx_aDn2DeEmz-8" value="" style="rounded=0;orthogonalLoop=1;jettySize=auto;html=1;endArrow=none;endFill=0;exitX=0.5;exitY=0;exitDx=0;exitDy=0;entryX=0.5;entryY=1;entryDx=0;entryDy=0;" edge="1" parent="1" source="pKteGFo1wx_aDn2DeEmz-2" target="pKteGFo1wx_aDn2DeEmz-7">
          <mxGeometry relative="1" as="geometry">
            <mxPoint x="687.5" y="603.5" as="sourcePoint" />
            <mxPoint x="722.5" y="653.5" as="targetPoint" />
          </mxGeometry>
        </mxCell>
        <mxCell id="pKteGFo1wx_aDn2DeEmz-28" value="profile_photo" style="ellipse;whiteSpace=wrap;html=1;align=center;" vertex="1" parent="1">
          <mxGeometry x="-494.5" y="700" width="100" height="40" as="geometry" />
        </mxCell>
        <mxCell id="pKteGFo1wx_aDn2DeEmz-34" value="Bookmark" style="rounded=1;arcSize=10;whiteSpace=wrap;html=1;align=center;" vertex="1" parent="1">
          <mxGeometry x="-55" y="620" width="100" height="40" as="geometry" />
        </mxCell>
        <mxCell id="pKteGFo1wx_aDn2DeEmz-35" value="is" style="shape=rhombus;perimeter=rhombusPerimeter;whiteSpace=wrap;html=1;align=center;" vertex="1" parent="1">
          <mxGeometry x="80" y="620" width="120" height="60" as="geometry" />
        </mxCell>
        <mxCell id="pKteGFo1wx_aDn2DeEmz-36" value="" style="endArrow=none;html=1;rounded=0;exitX=0;exitY=0.5;exitDx=0;exitDy=0;entryX=1;entryY=0.5;entryDx=0;entryDy=0;" edge="1" parent="1" source="pKteGFo1wx_aDn2DeEmz-34" target="J-x5pgl6WhYHOE8BbErK-370">
          <mxGeometry relative="1" as="geometry">
            <mxPoint x="-210" y="660" as="sourcePoint" />
            <mxPoint x="-224" y="740" as="targetPoint" />
          </mxGeometry>
        </mxCell>
        <mxCell id="pKteGFo1wx_aDn2DeEmz-37" value="" style="endArrow=none;html=1;rounded=0;exitX=1;exitY=0.5;exitDx=0;exitDy=0;entryX=0;entryY=0.5;entryDx=0;entryDy=0;" edge="1" parent="1" source="pKteGFo1wx_aDn2DeEmz-34" target="pKteGFo1wx_aDn2DeEmz-35">
          <mxGeometry relative="1" as="geometry">
            <mxPoint y="581.5" as="sourcePoint" />
            <mxPoint x="-14" y="661.5" as="targetPoint" />
          </mxGeometry>
        </mxCell>
        <mxCell id="L81fcon4hf4_sHEwZbb1-3" value="Rating" style="rounded=1;arcSize=10;whiteSpace=wrap;html=1;align=center;" vertex="1" parent="1">
          <mxGeometry x="-48" y="738" width="100" height="40" as="geometry" />
        </mxCell>
        <mxCell id="L81fcon4hf4_sHEwZbb1-4" value="Has" style="shape=rhombus;perimeter=rhombusPerimeter;whiteSpace=wrap;html=1;align=center;" vertex="1" parent="1">
          <mxGeometry x="77" y="738" width="120" height="60" as="geometry" />
        </mxCell>
        <mxCell id="L81fcon4hf4_sHEwZbb1-5" value="" style="endArrow=none;html=1;rounded=0;exitX=0;exitY=0.5;exitDx=0;exitDy=0;" edge="1" parent="1" source="L81fcon4hf4_sHEwZbb1-4" target="L81fcon4hf4_sHEwZbb1-3">
          <mxGeometry relative="1" as="geometry">
            <mxPoint x="12" y="748" as="sourcePoint" />
            <mxPoint x="-52" y="722" as="targetPoint" />
          </mxGeometry>
        </mxCell>
        <mxCell id="L81fcon4hf4_sHEwZbb1-6" value="" style="endArrow=none;html=1;rounded=0;exitX=1;exitY=0.5;exitDx=0;exitDy=0;entryX=0;entryY=0.25;entryDx=0;entryDy=0;" edge="1" parent="1" source="L81fcon4hf4_sHEwZbb1-4" target="J-x5pgl6WhYHOE8BbErK-223">
          <mxGeometry relative="1" as="geometry">
            <mxPoint x="22" y="758" as="sourcePoint" />
            <mxPoint x="-42" y="732" as="targetPoint" />
          </mxGeometry>
        </mxCell>
        <mxCell id="L81fcon4hf4_sHEwZbb1-9" value="Gives" style="shape=rhombus;perimeter=rhombusPerimeter;whiteSpace=wrap;html=1;align=center;" vertex="1" parent="1">
          <mxGeometry x="-187" y="781" width="120" height="60" as="geometry" />
        </mxCell>
        <mxCell id="L81fcon4hf4_sHEwZbb1-10" value="" style="endArrow=none;html=1;rounded=0;exitX=1;exitY=0.5;exitDx=0;exitDy=0;" edge="1" parent="1" source="L81fcon4hf4_sHEwZbb1-9" target="L81fcon4hf4_sHEwZbb1-11">
          <mxGeometry relative="1" as="geometry">
            <mxPoint x="-110" y="881" as="sourcePoint" />
            <mxPoint x="-214" y="891" as="targetPoint" />
          </mxGeometry>
        </mxCell>
        <mxCell id="L81fcon4hf4_sHEwZbb1-11" value="Like" style="rounded=1;arcSize=10;whiteSpace=wrap;html=1;align=center;" vertex="1" parent="1">
          <mxGeometry x="-55" y="799" width="100" height="40" as="geometry" />
        </mxCell>
        <mxCell id="L81fcon4hf4_sHEwZbb1-12" value="is Liked" style="shape=rhombus;perimeter=rhombusPerimeter;whiteSpace=wrap;html=1;align=center;" vertex="1" parent="1">
          <mxGeometry x="70" y="799" width="120" height="60" as="geometry" />
        </mxCell>
        <mxCell id="L81fcon4hf4_sHEwZbb1-13" value="" style="endArrow=none;html=1;rounded=0;exitX=0;exitY=0.5;exitDx=0;exitDy=0;" edge="1" parent="1" source="L81fcon4hf4_sHEwZbb1-12" target="L81fcon4hf4_sHEwZbb1-11">
          <mxGeometry relative="1" as="geometry">
            <mxPoint x="5" y="809" as="sourcePoint" />
            <mxPoint x="-59" y="783" as="targetPoint" />
          </mxGeometry>
        </mxCell>
        <mxCell id="L81fcon4hf4_sHEwZbb1-14" value="authors" style="shape=rhombus;perimeter=rhombusPerimeter;whiteSpace=wrap;html=1;align=center;" vertex="1" parent="1">
          <mxGeometry x="-40" y="880" width="120" height="60" as="geometry" />
        </mxCell>
        <mxCell id="L81fcon4hf4_sHEwZbb1-19" value="Steps" style="ellipse;whiteSpace=wrap;html=1;align=center;" vertex="1" parent="1">
          <mxGeometry x="410" y="993.5" width="100" height="40" as="geometry" />
        </mxCell>
        <mxCell id="L81fcon4hf4_sHEwZbb1-20" value="" style="endArrow=none;dashed=1;html=1;rounded=0;strokeWidth=2;" edge="1" parent="1">
          <mxGeometry width="50" height="50" relative="1" as="geometry">
            <mxPoint x="576.5" y="570" as="sourcePoint" />
            <mxPoint x="623.5" y="570" as="targetPoint" />
          </mxGeometry>
        </mxCell>
        <mxCell id="L81fcon4hf4_sHEwZbb1-21" value="Follow List" style="rounded=1;arcSize=10;whiteSpace=wrap;html=1;align=center;strokeWidth=4;" vertex="1" parent="1">
          <mxGeometry x="-380" y="958.5" width="100" height="40" as="geometry" />
        </mxCell>
        <mxCell id="L81fcon4hf4_sHEwZbb1-22" value="Is on" style="shape=rhombus;perimeter=rhombusPerimeter;whiteSpace=wrap;html=1;align=center;" vertex="1" parent="1">
          <mxGeometry x="-320" y="888.25" width="99.5" height="43.5" as="geometry" />
        </mxCell>
        <mxCell id="L81fcon4hf4_sHEwZbb1-23" value="Has" style="shape=rhombus;perimeter=rhombusPerimeter;whiteSpace=wrap;html=1;align=center;strokeWidth=3;" vertex="1" parent="1">
          <mxGeometry x="-440" y="888.25" width="99.5" height="43.5" as="geometry" />
        </mxCell>
        <mxCell id="L81fcon4hf4_sHEwZbb1-24" style="rounded=0;orthogonalLoop=1;jettySize=auto;html=1;entryX=0.75;entryY=0;entryDx=0;entryDy=0;endArrow=none;endFill=0;exitX=0.5;exitY=1;exitDx=0;exitDy=0;" edge="1" parent="1" source="L81fcon4hf4_sHEwZbb1-22" target="L81fcon4hf4_sHEwZbb1-21">
          <mxGeometry relative="1" as="geometry">
            <mxPoint x="-249" y="780" as="sourcePoint" />
            <mxPoint x="-260" y="898" as="targetPoint" />
          </mxGeometry>
        </mxCell>
        <mxCell id="L81fcon4hf4_sHEwZbb1-25" style="rounded=0;orthogonalLoop=1;jettySize=auto;html=1;entryX=0.25;entryY=0;entryDx=0;entryDy=0;endArrow=none;endFill=0;exitX=0.5;exitY=1;exitDx=0;exitDy=0;startArrow=classic;startFill=1;strokeWidth=3;" edge="1" parent="1" source="L81fcon4hf4_sHEwZbb1-23" target="L81fcon4hf4_sHEwZbb1-21">
          <mxGeometry relative="1" as="geometry">
            <mxPoint x="-239" y="790" as="sourcePoint" />
            <mxPoint x="-250" y="908" as="targetPoint" />
          </mxGeometry>
        </mxCell>
      </root>
    </mxGraphModel>
  </diagram>
</mxfile>
